<svg class="icon" viewBox="0 0 1024 1024" xmlns="http://www.w3.org/2000/svg" width="200" height="200"><defs><style/></defs><path d="M513.85 185.163h417.004c12.765 0 25.53 8.51 25.53 25.53v591.465c0 12.766-12.766 25.53-25.53 25.53H513.849v-51.061h391.473V236.225H513.85v-51.062zm0 459.556h263.818c12.765 0 21.275-8.51 21.275-21.276 0-8.51-8.51-21.275-21.275-21.275H513.849v42.55zm0-127.655h263.818c12.765 0 21.275-8.51 21.275-17.02 0-12.766-8.51-21.276-21.275-21.276H513.849v38.296zm0-123.398h263.818c12.765 0 21.275-8.51 21.275-21.276s-8.51-21.275-21.275-21.275H513.849v42.55zM92.59 185.163h421.26v51.062H118.12v540.403h395.73v51.062H92.59c-12.766 0-25.53-12.766-25.53-25.53V210.694c-.002-17.021 12.764-25.532 25.53-25.532zm421.26 165.95H245.774c-12.766 0-21.276 8.51-21.276 21.276s8.51 21.276 21.276 21.276h268.074v-42.551zm0 127.655H245.774c-12.766 0-21.276 8.51-21.276 21.276 0 8.51 8.51 17.02 21.276 17.02h268.074v-38.296zm0 123.4H245.774c-12.766 0-21.276 12.765-21.276 21.275 0 12.766 8.51 21.276 21.276 21.276h268.074v-42.551z"/></svg>