<svg class="icon" viewBox="0 0 1024 1024" xmlns="http://www.w3.org/2000/svg" width="200" height="200"><defs><style/></defs><path d="M139.033 846.938a26.777 26.777 0 01-20.8-9.84 510.394 510.394 0 01-42.548-59.69 27.03 27.03 0 1146.16-28.137 448.212 448.212 0 0038.045 53.405 27.177 27.177 0 01-3.543 38.09 28.08 28.08 0 01-17.36 6.172zm0 0"/><path d="M511.885 1023.999a507.64 507.64 0 01-294.762-93.542 27.01 27.01 0 0131.131-44.148 454.452 454.452 0 00263.688 83.599c252.26 0 457.56-205.506 457.56-458.017S764.145 53.874 511.885 53.874 54.44 259.505 54.44 512.005a456.68 456.68 0 0018.389 128.776 27.028 27.028 0 01-51.862 15.21A513.388 513.388 0 01.509 511.995C.509 229.643 229.923 0 511.999 0s511.48 229.643 511.48 511.994-229.517 511.993-511.594 511.993zm0 0"/><path d="M551.565 764.082a22.388 22.388 0 010 44.765H306.413A111.839 111.839 0 01193.73 696.894V327.527a112.479 112.479 0 01112.684-112.364h410.738c62.857 0 113.142 50.365 113.142 112.364v184.695a22.365 22.365 0 11-44.731 0V327.527a67.428 67.428 0 00-67.6-67.587H306.414a67.428 67.428 0 00-67.53 67.587v368.956a67.428 67.428 0 0067.53 67.599zm0 0"/><path d="M677.243 677.9c-49.028 0-88.593-37.885-88.593-84.81-.434-46.502 39.565-84.388 88.593-84.388s88.605 37.886 88.605 84.81c0 46.503-40 84.388-88.605 84.388zm0-126.147c-25.37 0-45.588 18.514-45.588 41.76s20.651 41.76 45.588 41.76 45.6-18.515 45.6-41.76-20.652-41.76-45.6-41.76zm0 0"/><path d="M807.573 808.344a21.314 21.314 0 01-21.508-21.53c0-55.532-48.171-100.742-107.096-100.742s-107.096 45.21-107.096 100.741a21.508 21.508 0 11-43.005 0c0-79.21 67.519-143.792 150.1-143.792S829.07 707.603 829.07 786.813a21.303 21.303 0 01-21.497 21.531zm-168.33-478.977a21.314 21.314 0 01-21.508-21.53v-68.023a21.508 21.508 0 1143.017 0v68.022a21.314 21.314 0 01-21.508 21.531zm-258.91 0a21.314 21.314 0 01-21.509-21.53v-68.023a21.508 21.508 0 1143.005 0v68.022a21.577 21.577 0 01-21.496 21.531zm-184.455 67.908v-44.777h632.666v44.777zm227.094 78.353v109.348q4.503 70.399-63.222 93.004c-6.857 1.714-11.623-.434-15.063-6.468-1.291-6.023 1.726-9.897 8.606-12.046 34.834-9.04 52.045-33.588 51.176-74.056V475.628c0-4.731 3.018-7.748 9.463-8.182 5.166.434 8.171 3.017 9.04 8.182zm-120.433-4.731h56.777c4.297.423 6.857 3.429 7.314 9.04-.434 5.6-3.017 8.183-7.314 8.183h-21.509v62.856h16.732c4.297.423 6.857 3.429 7.314 9.028-.434 5.6-3.017 8.183-7.314 8.183h-16.732v62c1.292-1.292 4.309-3.429 9.463-6.458a23.737 23.737 0 007.314-4.73c4.297-3.43 8.594-3.43 12.903.856 3.006 4.732 2.583 9.04-1.726 12.914-16.342 12.914-37.84 22.857-65.37 30.137-6.023.434-10.286-1.726-12.046-7.314-.423-4.309 2.149-7.749 8.606-9.909 11.177-2.582 18.49-4.73 22.365-7.314v-69.713h-15.062c-5.589 0-8.606-2.583-8.606-8.183s3.017-8.606 8.606-9.04h15.05V488.12H302.54c-5.588 0-8.594-2.583-8.594-8.183.423-5.6 3.006-8.617 8.594-9.04zm137.199 1.714h63.233c4.297.435 6.857 3.429 7.303 9.04-.423 5.6-3.006 8.183-7.303 8.183H477.59v70.17h18.49c5.166.435 7.75 3.429 8.606 9.052-.423 6.023-3.428 9.04-8.605 9.04h-18.491v76.627h27.953c5.166 0 7.749 3.017 8.606 9.04-.434 6.034-3.428 9.474-8.606 9.909h-77.861c-5.6-.435-8.606-3.875-8.606-9.909s3.006-9.04 8.606-9.04h31.816V578.52H438.88c-5.588 0-8.605-3.006-8.605-9.04 0-5.589 3.017-8.606 8.605-9.04h20.64v-70.605h-19.782c-6.023 0-9.463-2.583-10.286-8.183q.651-7.748 10.286-9.04zm-46.857 9.04c-.423 21.954-1.714 42.628-3.006 62a448.132 448.132 0 01-7.314 52.09c-2.583 6.034-6.457 9.052-12.045 8.183-5.589-1.291-7.315-5.166-5.589-12.057a382.647 382.647 0 006.457-47.36q2.572-24.525 3.863-61.987c0-4.743 3.017-7.749 8.606-8.183 5.588 0 8.605 2.583 9.028 7.314zm0 0"/><path d="M355.007 683.18c-6.445 0-11.177-3.017-14.183-9.474l-.434-1.291c-1.725-8.183 2.583-14.64 11.611-16.789 33.143-8.617 48.606-31.428 48.171-69.713V475.628c0-3.428 1.292-11.188 13.337-12.49h.857c7.737.868 12.046 5.176 13.337 12.056 2.149-3.874 6.446-6.023 12.035-6.857h64.513c3.863.423 9.886 3.006 11.177 12.914v.789c-1.291 10.765-8.606 12.057-11.611 12.057h-21.063v61.565h15.051c6.857.857 11.177 5.6 12.046 12.914v.857c-1.291 11.634-9.463 12.914-12.48 12.914h-14.194v68.034h23.657c3.428 0 11.611 1.29 12.48 12.914v.857c-1.292 10.765-8.172 13.348-12.046 13.782h-79.142c-7.737-.868-12.045-6.034-12.045-14.217 0-8.605 4.731-13.336 12.902-13.336h27.531v-67.554H438.88c-5.588 0-9.897-2.583-11.61-6.857v9.04c3.428 48.65-18.926 81.37-66.286 97.302a33.36 33.36 0 01-6.023.868zm-6.445-12.925c2.148 3.874 5.165 4.742 9.897 3.874 43.428-14.629 63.222-43.428 60.205-88.685V476.063c-.423-1.726-.858-3.429-5.155-4.309-5.165.434-5.165 2.583-5.165 3.874v110.65c.857 42.183-17.634 68.445-54.617 77.92-5.165 1.29-5.6 3.428-5.165 6.022zm79.141 0h77.84c1.29 0 3.874-.858 4.308-5.589-.434-4.743-2.583-4.743-3.874-4.743h-32.263V574.21h22.857c1.292 0 3.429 0 3.874-4.743-.434-3.428-2.148-4.731-4.308-4.731H473.29v-79.2h29.714c1.292 0 2.572 0 3.006-3.885-.434-3.874-2.149-4.731-3.429-4.731h-62.844c-4.298.434-5.589 2.148-6.023 4.731.434 2.16 1.291 3.886 6.023 3.886h24.09v78.787H438.88c-3.428.435-4.297 1.726-4.297 4.743 0 4.297 1.715 4.732 4.297 4.732h24.949v85.244H427.68c-2.583 0-4.309.435-4.309 4.732 0 5.165 1.726 6.034 4.309 6.457zm-.434-181.712v74.913c1.714-4.309 5.589-6.857 11.189-7.314h16.765v-62h-15.485c-6.023 0-10.286-1.725-12.469-5.6zM299.1 668.072c-6.857 0-12.045-3.429-14.628-10.286v-.891c-.857-4.309.868-10.766 11.188-14.64h.857a95.999 95.999 0 0018.926-5.6V572.93h-10.754c-7.737 0-12.903-4.743-12.903-12.491s4.309-12.48 12.046-13.349h11.177v-54.673h-12.469c-7.737 0-12.902-4.732-12.902-12.48s4.308-12.491 12.045-13.348h58.068c3.863.434 9.886 3.017 11.177 12.914v.434c.857-5.6 5.154-9.04 12.046-9.909h.422c7.749 0 12.903 3.875 13.772 11.2v.812c-.435 21.954-1.726 42.628-3.017 62.422-1.715 20.24-4.298 37.885-7.738 52.57l-.434.87c-3.005 7.748-9.028 11.622-16.777 10.753h-.423a12.354 12.354 0 01-8.17-5.165c-1.727-3.006-2.15-6.857-.858-12.046 1.714-7.748 3.006-15.931 4.297-24.971a11.028 11.028 0 01-10.286 6.457h-12.514v49.508c.869-.434 1.726-1.291 2.583-1.726 4.732-2.583 6.446-3.428 6.857-3.874 6.457-5.166 13.337-4.731 18.926.857l.434.869c4.297 6.457 3.429 13.348-2.583 18.514q-25.142 20.022-67.096 30.994zm-6.445-12.914c.857 2.148 2.571 4.308 7.302 3.874 26.674-7.314 47.748-16.789 63.223-29.28 2.582-2.148 3.017-3.874 1.302-6.457-3.017-2.583-4.731-2.148-6.857-.434-1.291 1.303-4.297 3.017-8.171 5.166a81.416 81.416 0 00-8.171 5.6l-7.315 7.325v-76.628h21.063c1.291 0 2.583 0 3.017-3.874-.434-3.874-2.148-4.731-3.428-4.731h-20.652V483.81h25.806c1.28 0 2.571 0 3.006-3.874-.435-3.874-2.149-4.743-3.429-4.743h-56.342c-3.429.434-4.297 1.726-4.297 4.743 0 2.583.423 3.874 4.297 3.874h21.074v71.462h-18.96c-3.428.434-4.297 1.726-4.297 4.731 0 2.595.423 3.886 4.297 3.886h19.348v77.485l-2.148 1.303c-4.297 2.583-12.034 5.165-23.646 7.748-5.6 1.714-6.022 3.874-6.022 4.732zm78.707-55.108c2.572.434 5.154-.435 7.303-5.166a426.783 426.783 0 007.314-51.234c1.292-19.37 2.149-40 2.583-61.565-.434-1.714-.857-3.017-4.731-3.428-4.297.423-4.297 2.583-4.297 3.874-.435 24.971-1.726 46.068-3.875 62.422a388.12 388.12 0 01-6.457 47.794 8.731 8.731 0 00-.423 5.588c.423.869 1.292 1.292 2.583 1.726zm-28.822-52.96h12.902c3.429.435 9.04 2.583 10.755 10.343l1.291-12.925q2.571-24.526 3.874-61.988v-1.292c-1.725 9.897-8.605 10.754-11.611 10.754h-17.211zm0 0"/></svg>