<svg class="icon" viewBox="0 0 1024 1024" xmlns="http://www.w3.org/2000/svg" width="200" height="200"><defs><style/></defs><path d="M999.723 449.024C886.912 324.864 699.733 193.621 512 196.267c-187.733-2.688-374.912 128.64-487.765 252.757a94.336 94.336 0 000 125.781C135.723 697.643 320.299 827.733 505.13 827.733h13.141c185.472 0 369.963-130.09 481.579-252.97a94.293 94.293 0 00-.128-125.739zM315.733 512A196.267 196.267 0 11512 708.267 196.267 196.267 0 01315.733 512z"/><path d="M426.66700000000003 512a85.333 85.333 0 10170.666 0 85.333 85.333 0 10-170.666 0z"/></svg>